<svg xmlns="http://www.w3.org/2000/svg" width="185.469" height="24.415" viewBox="0 0 49.072 6.46"><path d="M3.683.662c0-.527-.495-.68-.908-.66v.082c.248.006.438.089.438.254 0 .114-.082.26-.33.26-.197 0-.578-.114-.883-.216C1.664.268 1.346.16 1.08.16c-.521 0-.915.388-.915.864 0 .387.292.527.413.578l.038-.064c-.076-.05-.152-.108-.152-.26 0-.115.101-.299.368-.299.241 0 .559.108.978.229.362.101.762.197.978.222v.825l-.407.337v.032l.407.356v1.136c-.21.121-.451.153-.66.153-.388 0-.756-.102-1.049-.426l1.093-.527V1.494l-1.34.597c.14-.356.419-.59.705-.762l-.02-.064C.725 1.481 0 2.211 0 3.113c0 1.08.876 1.88 1.873 1.88 1.08 0 1.766-.845 1.753-1.74l-.064-.006c-.158.343-.387.667-.685.838V2.98l.431-.343-.006-.038-.425-.343V1.43c.394 0 .806-.267.806-.769zM1.365 3.615l-.324.158c-.184-.24-.304-.565-.304-1.016 0-.184.019-.413.076-.571l.559-.248zm2.826.59l-.356.267.045.05.171-.12.597.546.8-.533-.038-.058-.21.134-.26-.26V2.4l.216-.158.457.368v1.62c0 1.01-.222 1.174-.679 1.34v.07c.756.031 1.435-.223 1.435-1.518v-1.74l.241-.191-.044-.057-.21.165-.654-.565-.762.571V.11h-.057l-.946.635v.058c.095.057.254.095.254.413zm4.877-.285l-.654.508-.68-.534v-.318l1.264-.844v-.038l-.629-.966-1.378.737v1.753l-.273.21.045.056.247-.196.902.654 1.207-.953zM7.734 3.48V2.173l.045-.032.584.921zm6.439-3.06a.748.748 0 0 0-.05-.248h-.064c-.083.223-.185.343-.445.343-.229 0-.406-.14-.502-.241 0 .006-.762.882-.762.882l.064.058.216-.248c.165.127.285.248.654.254v2.222L11.722.738c-.12-.203-.324-.508-.699-.508-.419 0-.806.362-.755.972h.076c.019-.165.101-.343.286-.343.146 0 .279.14.349.266v.87c-.483 0-.8.223-.8.616 0 .204.101.546.438.61l.006-.057c-.045-.045-.09-.095-.09-.184 0-.146.109-.242.305-.242.032 0 .121.006.14.013v1.13c-.565.006-1.003.318-1.003.851 0 .508.438.75.895.724l.006-.063c-.286-.032-.438-.165-.438-.35 0-.228.165-.348.375-.348.216 0 .406.133.54.285l.768-.857-.064-.057-.197.222c-.292-.26-.457-.356-.793-.406V1.208l2.152 3.753h.153v-3.74c.413-.026.8-.337.8-.8zm1.924 3.499l-.654.508-.68-.534v-.317l1.264-.845v-.038l-.629-.965-1.378.737v1.752l-.273.21.045.057.248-.197.901.654 1.207-.952-.051-.07zm-1.334-.439V2.173l.045-.032.584.921zm5.702-1.46l-.196.146-.508-.432-.59.534.24.228V4.51l-.647-.413V2.46l.21-.146-.623-.578-.578.534.241.228v1.911l-.082.051-.565-.4V2.453c0-.369-.178-.477-.413-.623-.197-.12-.286-.222-.286-.406 0-.152.153-.241.229-.286-.006-.006-.006-.063-.006-.063-.203-.006-.769.216-.781.73-.006.267.12.38.254.508.133.127.254.248.254.47v1.543l-.286.222.045.058.26-.204.705.553.666-.451.737.45 1.416-.825V2.34l.35-.255-.045-.063zM25.412.554l-.267.241-.596-.52-.87.647v-.61h-.09l.02 4.325c-.09-.013-.311-.063-.515-.095L23.075.93a.633.633 0 0 0-.666-.635c-.49 0-.807.374-.807.749h.076c.026-.159.108-.299.267-.299.165 0 .305.102.305.458v1.041c-.49.02-.769.292-.769.629 0 .21.096.533.439.546l.012-.064c-.114-.05-.14-.12-.14-.184 0-.152.147-.215.35-.215h.095v1.65c-.387.134-.565.42-.565.744 0 .444.356.78.876.78.369 0 .686-.063 1.023-.14.273-.056.603-.12.762-.12.203 0 .292.095.292.242 0 .183-.083.254-.19.285l.012.064c.438-.083.692-.343.692-.737 0-.406-.387-.648-.82-.648-.221 0-.66.07-.99.147-.368.082-.743.12-.857.12-.184 0-.413-.089-.413-.336 0-.223.184-.4.642-.4.247 0 .527.038.831.107.324.07.61.16.89.16.387 0 .736-.14.736-.706V.877l.311-.266zM24.32 2.199a.447.447 0 0 1-.318.152c-.146 0-.254-.089-.323-.152V1.01l.273-.184.368.337zm0 .793a.463.463 0 0 0-.318-.133.527.527 0 0 0-.323.133v-.698c.057.05.184.14.323.14.14 0 .254-.077.318-.14zm0 1.245c0 .216-.146.425-.426.425a2.44 2.44 0 0 1-.215-.012V3.088a.499.499 0 0 1 .323-.147c.134 0 .242.077.318.147zm3.645-1.893l-.864-.616-1.295.744v1.74l-.267.216.038.056.21-.17.857.628 1.32-.807zm-1.416 1.683V2.122l.673.483V4.51zM30.51 1.8c0 .006-.05 0-.05 0a.38.38 0 0 1-.236.107.421.421 0 0 1-.298-.145h-.05l-.452.495-.463-.495-.788.545.038.064.21-.14.273.292v1.683l-.356.267.045.05.171-.12.642.546.832-.553-.038-.057-.235.14-.312-.28V2.325c.134.146.293.273.477.273.355 0 .552-.393.59-.8zm3.207 2.559l-.908.597-1.232-1.861.87-1.352.057-.006c.102.101.28.21.445.21a.467.467 0 0 0 .387-.21s.05.006.05 0c-.03.54-.393.844-.666.844-.28 0-.413-.127-.559-.216l-.082.121 1.333 1.975.267-.165zm-2.934-.153l-.355.267.044.05.171-.12.597.546.8-.533-.044-.058-.203.134-.26-.26V.11h-.058l-.965.64v.058c.095.057.273.083.273.406zm7.36-3.543c0-.527-.496-.68-.908-.66v.082c.247.006.438.089.438.254 0 .114-.083.26-.33.26-.197 0-.578-.114-.883-.216-.337-.114-.654-.222-.92-.222-.522 0-.915.388-.915.864 0 .387.292.527.412.578l.039-.064c-.077-.05-.153-.107-.153-.26 0-.114.102-.299.368-.299.242 0 .56.108.978.229.362.102.762.197.978.223v.825l-.406.337v.031l.406.356v1.137c-.21.12-.45.152-.66.152-.387 0-.756-.102-1.048-.425l1.092-.527V1.494l-1.34.597c.14-.356.42-.59.705-.762l-.019-.064c-.793.216-1.517.946-1.517 1.848 0 1.08.876 1.88 1.873 1.88 1.08 0 1.765-.845 1.753-1.74l-.064-.006c-.159.343-.387.667-.686.838V2.98l.432-.343-.006-.038-.425-.343V1.43c.393 0 .806-.267.806-.769zm-2.318 2.953l-.324.158c-.184-.24-.305-.565-.305-1.016 0-.184.02-.413.076-.571l.56-.248-.007 1.677zM39.058.414L39.02.408l-.533.45v.039l.45.508h.045l.533-.445L39.51.93l-.45-.515zm.813 3.944l-.203.133-.26-.26V2.389l.253-.19-.05-.064-.197.152-.464-.552-.762.534.045.07.19-.128.235.292V4.23l-.343.26.038.051.178-.127.584.534.8-.534zm4.445-.032l-.19.127-.286-.26v-1.81l.273-.203-.045-.058-.235.178-.61-.565-.787.559-.603-.56-.775.553-.476-.552-.762.533.038.07.19-.127.26.286v1.727l-.209.21.61.514.59-.534-.24-.228V2.383l.228-.153.413.381v1.613l-.204.21.616.514.578-.533-.241-.229V2.37l.203-.133.438.374V4.2l-.178.184.623.565.819-.559zm2.318-.407l-.654.509-.68-.534v-.317l1.264-.845v-.038l-.629-.965-1.378.737v1.81l.92.666 1.207-.953zM45.3 3.481V2.173l.045-.032.584.921zm3.772-.248l-.514-.388c.343-.298.476-.699.476-.971 0-.038-.006-.108-.013-.172h-.063c-.051.14-.153.26-.362.26-.203 0-.35-.114-.477-.254l-1.2.655v.971l.445.35c-.451.4-.534.679-.534.882 0 .267.121.458.35.546l.031-.057c-.057-.05-.108-.083-.108-.203 0-.09.108-.216.312-.216.26 0 .419.177.501.273 0-.006 1.156-.692 1.156-.692zm-.286-.8c-.178.317-.59.628-.819.806l-.292-.229v-.946c.114.254.394.47.698.47a.796.796 0 0 0 .413-.102zm-.47 2.12c-.133-.298-.444-.514-.762-.514-.076 0-.298 0-.501.127.12-.203.476-.584.933-.857l.33.254z"/></svg>